<svg xmlns="http://www.w3.org/2000/svg" width="114" height="40" viewBox="0 0 114 40">
  <g fill="none" fill-rule="evenodd">
    <path fill="#555" d="M9.12,29.632 L9.6,30.208 C9.48,30.364 9.456,30.4 9.312,30.688 C8.484,32.296 7.368,33.388 5.808,34.108 C5.628,33.808 5.532,33.7 5.22,33.424 C6.06,33.1 6.552,32.812 7.116,32.284 C7.668,31.768 8.112,31.18 8.46,30.496 L1.644,30.496 C0.984,30.496 0.672,30.508 0.228,30.556 L0.228,29.632 C0.636,29.692 0.972,29.716 1.656,29.716 L8.1,29.716 C8.904,29.716 8.904,29.716 9.12,29.632 Z M3.888,31.72 L4.86,31.72 C4.824,31.936 4.824,31.936 4.812,32.56 C4.776,34.564 4.44,35.752 3.624,36.784 C2.892,37.708 2.004,38.308 0.552,38.86 C0.372,38.476 0.288,38.356 0,38.056 C0.972,37.768 1.572,37.468 2.196,36.952 C3.468,35.932 3.936,34.708 3.936,32.368 C3.936,32.032 3.924,31.948 3.888,31.72 Z M17.048,31.996 L19.712,31.996 C20.408,31.996 20.696,31.984 21.116,31.912 L21.116,32.848 C20.708,32.8 20.36,32.788 19.724,32.788 L17.012,32.788 C16.916,34.468 16.7,35.368 16.124,36.28 C15.488,37.3 14.564,38.08 13.148,38.788 C12.932,38.416 12.824,38.284 12.536,38.02 C13.94,37.456 14.936,36.628 15.512,35.548 C15.896,34.828 16.028,34.216 16.124,32.788 L12.8,32.788 C12.164,32.788 11.816,32.8 11.408,32.848 L11.408,31.912 C11.84,31.984 12.116,31.996 12.812,31.996 L16.16,31.996 C16.172,31.552 16.172,31.312 16.172,30.94 L16.172,30.076 C16.172,29.596 16.16,29.344 16.112,29.056 L17.12,29.056 C17.072,29.38 17.072,29.404 17.06,30.076 L17.048,30.94 L17.048,31.996 Z M26.944,28.576 L27.892,28.852 C27.736,29.08 27.736,29.08 27.472,29.644 C27.364,29.872 27.244,30.076 27.1,30.304 C27.268,30.28 27.268,30.28 30.808,30.244 C31.108,30.232 31.324,30.196 31.504,30.124 L32.044,30.664 C31.912,30.856 31.9,30.892 31.696,31.456 C30.868,33.688 29.812,35.416 28.564,36.616 C27.556,37.576 26.368,38.356 24.772,39.088 C24.58,38.728 24.472,38.596 24.184,38.344 C25.204,37.948 25.852,37.6 26.668,37.036 C27.604,36.388 28.156,35.896 28.744,35.14 C27.88,34.36 27.004,33.736 26.056,33.196 L26.608,32.584 C27.628,33.172 28.288,33.64 29.26,34.444 C29.968,33.376 30.508,32.236 30.928,30.964 L26.728,31.024 C25.912,32.332 25.06,33.268 23.872,34.216 C23.596,33.904 23.488,33.82 23.176,33.64 C24.472,32.704 25.456,31.6 26.236,30.22 C26.62,29.524 26.848,29.008 26.944,28.576 Z M40.104,30.532 C39.924,32.2 39.468,34.036 38.928,35.296 C38.232,36.88 37.524,37.6 36.66,37.6 C35.52,37.6 34.668,36.352 34.668,34.672 C34.668,33.448 35.124,32.26 35.928,31.36 C36.888,30.304 38.196,29.764 39.804,29.764 C41.148,29.764 42.324,30.184 43.104,30.952 C43.86,31.684 44.268,32.728 44.268,33.88 C44.268,35.74 43.26,37.276 41.52,38.02 C40.98,38.248 40.524,38.392 39.696,38.572 C39.576,38.176 39.504,38.056 39.276,37.768 C40.152,37.624 40.716,37.468 41.28,37.204 C42.6,36.604 43.404,35.32 43.404,33.844 C43.404,32.476 42.708,31.372 41.496,30.832 C41.052,30.64 40.704,30.556 40.104,30.532 Z M39.24,30.544 C38.52,30.604 38.004,30.772 37.452,31.108 C36.24,31.84 35.496,33.196 35.496,34.684 C35.496,35.836 36,36.724 36.648,36.724 C37.152,36.724 37.632,36.16 38.148,34.984 C38.64,33.856 39.084,32.08 39.24,30.544 Z M52.76,31.228 L52.76,30.208 L52.004,30.208 C51.608,30.208 51.38,30.22 51.092,30.256 L51.092,29.536 C51.356,29.584 51.572,29.596 52.004,29.596 L52.76,29.596 L52.76,29.488 C52.76,29.116 52.736,28.888 52.7,28.612 L53.48,28.612 C53.444,28.888 53.432,29.104 53.432,29.488 L53.432,29.596 L54.836,29.596 C55.28,29.596 55.544,29.584 55.736,29.56 C55.712,29.812 55.712,29.884 55.712,30.364 L55.712,31.228 L55.832,31.228 C56.192,31.228 56.384,31.216 56.636,31.168 L56.636,31.9 C56.3,31.852 56.084,31.84 55.832,31.84 L55.712,31.84 L55.712,32.812 C55.712,33.148 55.712,33.316 55.736,33.544 C55.484,33.532 55.184,33.52 54.824,33.52 L53.432,33.52 L53.432,34.48 L54.812,34.48 C55.34,34.48 55.616,34.468 55.928,34.42 L55.928,35.14 C55.556,35.104 55.208,35.08 54.8,35.08 L53.432,35.08 L53.432,36.1 L55.232,36.1 C55.724,36.1 56.084,36.076 56.408,36.04 L56.408,36.772 C56.06,36.736 55.748,36.724 55.232,36.724 L53.432,36.724 L53.432,36.952 C53.432,37.288 53.444,37.516 53.492,37.84 L52.7,37.84 C52.736,37.564 52.76,37.348 52.76,36.964 L52.76,36.724 L51.38,36.724 C50.864,36.724 50.576,36.736 50.276,36.784 L50.276,36.04 C50.624,36.088 50.948,36.1 51.392,36.1 L52.76,36.1 L52.76,35.08 L51.848,35.08 C51.38,35.08 51.056,35.092 50.804,35.14 L50.804,34.42 C51.056,34.468 51.344,34.48 51.848,34.48 L52.76,34.48 L52.76,33.52 L51.896,33.52 C51.536,33.52 51.296,33.532 51.02,33.568 L51.02,32.884 C51.296,32.92 51.524,32.932 51.908,32.932 L52.76,32.932 L52.76,31.84 L51.632,31.84 C51.128,31.84 50.852,31.852 50.576,31.9 L50.576,31.168 C50.852,31.216 51.152,31.228 51.74,31.228 L52.76,31.228 Z M53.432,31.228 L55.028,31.228 L55.028,30.208 L53.432,30.208 L53.432,31.228 Z M53.432,31.84 L53.432,32.932 L55.028,32.932 L55.028,31.84 L53.432,31.84 Z M47.924,34.36 L48.62,34.072 C48.74,34.78 48.896,35.2 49.328,35.992 C49.58,35.212 49.7,34.624 49.88,33.34 L48.716,33.34 C48.356,33.34 48.176,33.34 47.852,33.364 C48.68,32.212 49.256,31.216 49.724,30.076 L48.968,30.076 C48.716,30.076 48.488,30.1 48.296,30.136 L48.296,29.404 C48.476,29.428 48.716,29.44 49.004,29.44 L49.616,29.44 C49.952,29.44 50.084,29.428 50.252,29.404 L50.6,29.776 C50.552,29.86 50.528,29.908 50.444,30.1 C50.156,30.832 49.568,31.9 49.016,32.74 L49.52,32.74 C50.156,32.74 50.396,32.728 50.624,32.692 C50.588,32.992 50.588,32.992 50.54,33.316 C50.384,34.564 50.12,35.704 49.772,36.664 C50.756,37.84 52.052,38.296 54.452,38.296 C55.1,38.296 55.712,38.26 56.708,38.164 C56.552,38.5 56.504,38.668 56.48,38.944 C55.688,38.98 55.352,38.992 54.884,38.992 C53.348,38.992 52.292,38.86 51.392,38.548 C50.588,38.272 50.06,37.936 49.496,37.324 C49.124,38.08 48.812,38.536 48.14,39.316 C47.984,39.064 47.984,39.064 47.624,38.74 C48.26,38.14 48.704,37.504 49.04,36.736 C48.608,36.076 48.5,35.848 47.924,34.36 Z M46.7,37.864 L46.7,34.492 C46.7,33.796 46.712,33.244 46.736,32.668 C46.364,33.46 46.112,33.88 45.704,34.444 C45.668,34.384 45.632,34.336 45.62,34.3 C45.512,34.096 45.512,34.096 45.38,33.952 C45.308,33.844 45.308,33.844 45.248,33.772 C46.052,32.728 46.568,31.756 47.108,30.28 C47.36,29.584 47.564,28.84 47.612,28.432 L48.38,28.648 C48.272,28.924 48.26,28.96 48.188,29.224 C47.996,29.908 47.72,30.652 47.408,31.396 L47.408,37.852 C47.408,38.56 47.42,38.944 47.456,39.34 L46.628,39.34 C46.676,38.932 46.7,38.512 46.7,37.864 Z M62.848,32.608 L62.848,31.72 L60.76,31.72 C60.376,31.72 60.1,31.732 59.812,31.78 L59.812,31.048 C60.076,31.096 60.304,31.108 60.76,31.108 L62.848,31.108 C62.836,30.736 62.824,30.616 62.788,30.412 L63.592,30.412 C63.556,30.592 63.544,30.76 63.544,31.108 L65.8,31.108 C66.268,31.108 66.496,31.096 66.832,31.06 C66.796,31.288 66.796,31.54 66.796,31.888 L66.796,32.608 L67.156,32.608 C67.636,32.608 67.864,32.596 68.092,32.548 L68.092,33.292 C67.792,33.244 67.504,33.232 67.144,33.232 L66.796,33.232 L66.796,33.988 C66.796,34.504 66.796,34.576 66.82,34.828 C66.232,34.804 66.232,34.804 65.944,34.804 L63.82,34.804 C64.156,35.44 64.468,35.884 64.984,36.436 C65.884,35.836 66.316,35.452 66.808,34.84 L67.444,35.296 C66.664,36.028 66.196,36.4 65.452,36.892 C66.232,37.588 66.952,38.032 68.092,38.512 C67.912,38.692 67.768,38.848 67.552,39.172 C66.304,38.512 65.728,38.128 64.984,37.396 C64.408,36.844 63.964,36.22 63.472,35.284 C63.508,35.62 63.532,36.268 63.532,36.496 L63.532,38.38 C63.532,39.1 63.292,39.28 62.356,39.28 C62.044,39.28 61.696,39.268 61.252,39.232 C61.228,38.908 61.192,38.716 61.084,38.416 C61.552,38.512 61.948,38.56 62.356,38.56 C62.776,38.56 62.848,38.524 62.848,38.272 L62.848,37.06 C61.264,37.84 61.096,37.912 59.728,38.428 C59.536,38.5 59.416,38.56 59.272,38.62 L58.9,37.864 C59.188,37.816 59.308,37.78 59.884,37.6 C60.964,37.252 61.48,37.048 62.848,36.376 L62.848,34.804 L60.664,34.804 C60.244,34.804 59.968,34.816 59.704,34.864 L59.704,34.132 C59.968,34.18 60.22,34.192 60.64,34.192 L62.848,34.192 L62.848,33.232 L58.96,33.232 C58.84,36.184 58.528,37.708 57.736,39.316 C57.508,39.052 57.4,38.956 57.1,38.752 C57.52,37.924 57.7,37.408 57.856,36.616 C58.12,35.308 58.264,33.232 58.264,30.784 C58.264,30.076 58.252,29.776 58.216,29.428 C58.564,29.476 58.912,29.488 59.56,29.488 L62.608,29.488 L62.608,29.188 C62.608,28.828 62.584,28.648 62.536,28.408 L63.424,28.408 C63.376,28.624 63.364,28.816 63.364,29.2 L63.364,29.488 L66.724,29.488 C67.324,29.488 67.684,29.464 67.972,29.416 L67.972,30.196 C67.588,30.148 67.276,30.136 66.832,30.136 L59.008,30.136 C59.008,31.384 58.996,31.876 58.984,32.608 L62.848,32.608 Z M66.1,33.232 L63.544,33.232 L63.544,34.192 L66.1,34.192 L66.1,33.232 Z M66.1,32.608 L66.1,31.72 L63.544,31.72 L63.544,32.608 L66.1,32.608 Z M59.8,35.476 L60.316,35.044 C60.964,35.428 61.348,35.728 61.96,36.292 L61.468,36.76 C60.832,36.136 60.484,35.872 59.8,35.476 Z M72.42,31.432 L76.08,31.432 L76.08,30.268 C76.08,29.416 76.08,29.32 76.044,29.056 L76.98,29.056 C76.944,29.368 76.944,29.368 76.932,30.172 L76.932,31.432 L77.964,31.432 C78.672,31.432 78.936,31.42 79.368,31.36 L79.368,32.272 C78.96,32.224 78.612,32.212 77.976,32.212 L76.92,32.212 C76.896,34.648 76.776,35.416 76.332,36.28 C75.912,37.072 75.24,37.756 74.376,38.26 C73.956,38.488 73.644,38.632 72.984,38.872 C72.828,38.536 72.732,38.404 72.444,38.116 C73.488,37.816 74.1,37.504 74.736,36.94 C75.576,36.184 75.912,35.392 76.02,33.94 C76.044,33.556 76.056,33.184 76.068,32.212 L72.42,32.212 L72.42,34.216 C72.42,34.732 72.432,34.888 72.468,35.188 L71.496,35.188 C71.532,34.924 71.544,34.696 71.544,34.18 L71.544,32.212 L70.536,32.212 C69.9,32.212 69.552,32.224 69.144,32.272 L69.144,31.36 C69.576,31.42 69.84,31.432 70.548,31.432 L71.544,31.432 L71.544,30.052 C71.544,29.536 71.532,29.32 71.496,29.044 L72.468,29.044 C72.42,29.368 72.42,29.464 72.42,30.016 L72.42,31.432 Z M85.34,31.012 L85.34,30.208 C85.34,29.476 85.328,29.26 85.268,28.984 L86.252,28.984 C86.204,29.272 86.192,29.488 86.192,30.232 L86.192,31.012 L89.216,31.012 C89.996,31.012 90.236,31 90.62,30.94 L90.62,31.852 C90.248,31.804 90.008,31.792 89.24,31.792 L86.192,31.792 L86.192,37.768 C86.192,38.5 86.204,38.764 86.252,39.04 L85.268,39.04 C85.316,38.764 85.34,38.512 85.34,37.78 L85.34,31.792 L82.4,31.792 C81.632,31.792 81.392,31.804 81.02,31.852 L81.02,30.94 C81.404,31 81.632,31.012 82.412,31.012 L85.34,31.012 Z M82.748,32.896 L83.66,33.148 C83.612,33.268 83.612,33.268 83.588,33.352 L83.516,33.592 L83.456,33.856 C83.024,35.452 82.292,36.904 81.356,37.996 C81.08,37.744 80.936,37.66 80.564,37.48 C81.272,36.796 81.812,35.896 82.328,34.528 C82.58,33.856 82.724,33.292 82.748,32.896 Z M87.872,33.136 L88.712,32.908 C88.772,33.208 88.88,33.544 89.156,34.264 C89.72,35.668 90.272,36.628 91.016,37.48 C90.68,37.66 90.548,37.756 90.26,38.044 C89.42,36.94 88.784,35.668 88.172,33.916 C88.064,33.592 87.956,33.328 87.872,33.136 Z M90.032,28 C90.788,28 91.388,28.6 91.388,29.356 C91.388,30.112 90.776,30.724 90.032,30.724 C89.276,30.724 88.664,30.112 88.664,29.356 C88.664,28.612 89.276,28 90.032,28 Z M90.032,28.504 C89.552,28.504 89.168,28.888 89.168,29.356 C89.168,29.836 89.552,30.22 90.032,30.22 C90.5,30.22 90.884,29.836 90.884,29.356 C90.884,28.888 90.5,28.504 90.032,28.504 Z M92.14,34.372 L92.14,33.388 C92.488,33.448 92.812,33.46 93.628,33.46 L100.6,33.46 C101.488,33.46 101.68,33.448 102.052,33.4 L102.052,34.372 C101.668,34.336 101.392,34.324 100.588,34.324 L93.628,34.324 C92.752,34.324 92.5,34.336 92.14,34.372 Z M107.28,38.86 L106.248,38.86 C106.296,38.536 106.32,38.248 106.32,37.6 L106.32,30.148 C106.32,29.512 106.296,29.224 106.248,28.924 L107.28,28.924 C107.232,29.236 107.22,29.488 107.22,30.172 L107.22,32.416 C109.068,33.076 110.46,33.736 112.56,34.948 L112.044,35.836 C110.916,35.044 109.26,34.156 107.568,33.46 C107.388,33.388 107.304,33.34 107.196,33.256 L107.172,33.268 C107.208,33.508 107.22,33.676 107.22,33.976 L107.22,37.588 C107.22,38.26 107.232,38.524 107.28,38.86 Z"/>
    <path fill="#45C80D" d="M16.808,21.984 L14.76,21.984 L14.76,12.864 L3.048,12.864 L3.048,21.984 L1,21.984 L1,1.984 L3.048,1.984 L3.048,11.008 L14.76,11.008 L14.76,1.984 L16.808,1.984 L16.808,21.984 Z M21.928,14.72 L21.928,14.88 C21.992,18.176 23.976,20.544 27.048,20.544 C28.648,20.544 30.184,20.064 31.304,19.328 L31.688,21.152 C30.44,21.92 28.808,22.4 26.984,22.4 C22.76,22.4 19.912,19.232 19.912,14.784 C19.912,10.176 22.856,6.912 26.824,6.912 C30.056,6.912 32.168,9.024 32.168,12.32 C32.168,13.088 32.04,14.016 31.848,14.656 L21.928,14.72 Z M22.056,13.152 L30.184,13.12 C30.216,12.96 30.216,12.64 30.216,12.48 C30.216,10.24 29,8.704 26.696,8.704 C24.072,8.704 22.376,10.72 22.056,13.152 Z M42.76,18.752 L42.76,14.464 C37.736,15.04 35.944,16.16 35.944,18.112 C35.944,19.68 37.224,20.672 38.952,20.672 C40.52,20.672 41.864,19.776 42.76,18.752 Z M42.888,20.224 L42.792,20.224 C41.8,21.44 40.232,22.4 38.504,22.4 C35.816,22.4 33.864,20.672 33.864,18.336 C33.864,15.68 35.944,13.504 42.76,13.12 L42.76,12.256 C42.76,9.952 41.736,8.768 39.304,8.768 C37.704,8.768 35.752,9.6 34.504,10.528 L34.056,8.672 C35.368,7.744 37.576,6.912 39.496,6.912 C42.888,6.912 44.776,8.448 44.744,12.16 L44.744,19.2 C44.744,20.256 44.936,20.704 46.216,20.672 L46.088,22.304 C44.168,22.432 43.112,21.664 42.888,20.224 Z M50.344,21.984 L48.36,21.984 L48.36,0.416 L50.344,0 L50.344,21.984 Z M61.448,21.696 C60.424,22.176 59.24,22.464 58.184,22.464 C55.4,22.464 54.152,20.928 54.248,17.856 L54.472,9.184 L52.232,9.056 L52.328,7.808 L54.536,7.296 L54.632,3.968 L56.52,3.968 L56.424,7.392 L61.32,7.392 L61.224,9.152 L56.36,9.152 L56.136,17.92 C56.072,19.776 56.744,20.672 58.28,20.672 C59.24,20.672 60.2,20.352 61.096,19.968 L61.448,21.696 Z M75.5279999,21.984 L73.5439999,21.984 L73.5439999,12.512 C73.5439999,9.952 72.5199999,8.8 70.4079999,8.8 C68.7119999,8.8 67.0799999,9.664 65.8639999,10.88 L65.8639999,21.984 L63.8799999,21.984 L63.8799999,0.416 L65.8639999,0 L65.8639999,9.248 C67.3999999,7.712 69.3199999,6.912 70.9519999,6.912 C73.7999999,6.912 75.5279999,8.736 75.5279999,11.936 L75.5279999,21.984 Z M80.2959999,14.72 L80.2959999,14.88 C80.3599999,18.176 82.3439999,20.544 85.4159999,20.544 C87.0159999,20.544 88.5519999,20.064 89.6719999,19.328 L90.0559999,21.152 C88.8079999,21.92 87.1759999,22.4 85.3519999,22.4 C81.1279999,22.4 78.2799999,19.232 78.2799999,14.784 C78.2799999,10.176 81.2239999,6.912 85.1919999,6.912 C88.4239999,6.912 90.5359999,9.024 90.5359999,12.32 C90.5359999,13.088 90.4079999,14.016 90.2159999,14.656 L80.2959999,14.72 Z M80.4239999,13.152 L88.5519999,13.12 C88.5839999,12.96 88.5839999,12.64 88.5839999,12.48 C88.5839999,10.24 87.3679999,8.704 85.0639999,8.704 C82.4399999,8.704 80.7439999,10.72 80.4239999,13.152 Z M113.768,21.984 L111.784,21.984 L111.784,12.544 C111.784,9.984 110.792,8.8 108.68,8.8 C107.112,8.8 105.672,9.632 104.552,10.688 C104.584,10.88 104.616,11.648 104.616,12 L104.616,21.984 L102.632,21.984 L102.632,12.544 C102.632,9.984 101.64,8.8 99.5279999,8.8 C97.9919999,8.8 96.5839999,9.504 95.4639999,10.496 L95.4639999,21.984 L93.4799999,21.984 L93.4799999,7.328 L95.4639999,6.912 L95.4639999,8.928 C96.9679999,7.552 98.5999999,6.912 100.104,6.912 C101.928,6.912 103.368,7.712 104.072,9.344 C105.704,7.712 107.56,6.912 109.256,6.912 C112.04,6.912 113.768,8.736 113.768,11.968 L113.768,21.984 Z"/>
  </g>
</svg>
